<svg xmlns="http://www.w3.org/2000/svg" xmlns:xlink="http://www.w3.org/1999/xlink" version="1.1" x="0px" y="0px" viewBox="0 0 100 125" enable-background="new 0 0 100 100" xml:space="preserve"><g><path d="M78.429,3.421C74.626,1.1,70.308,0,65.72,0C50.508,0.001,32.344,12.097,20.281,31.861   C4.58,57.587,5.158,86.562,21.572,96.579C25.374,98.901,29.692,100,34.28,100c15.212,0,33.376-12.097,45.439-31.862   C95.42,42.413,94.842,13.438,78.429,3.421z M22.868,33.44c5.621-9.209,12.77-16.964,20.675-22.428   c7.555-5.221,15.224-7.981,22.178-7.981h0.001c1.018,0,2.013,0.061,2.981,0.182c-2.764,0.621-5.799,1.946-9.048,3.965   c-6.474,4.023-13.53,10.73-20.005,18.987l-2.709-1.155c-0.77-0.327-1.66,0.03-1.988,0.8c-0.328,0.77,0.03,1.66,0.799,1.989   l8.073,3.443c0.194,0.082,0.396,0.121,0.594,0.121c0.589,0,1.149-0.345,1.395-0.921c0.328-0.77-0.03-1.66-0.8-1.989l-2.476-1.056   C55.385,11.243,69.374,2.675,76.316,6.912c8.834,5.392,4.252,29.683-10.005,53.043c-7.139,11.698-15.637,21.579-23.928,27.823   c-7.795,5.871-14.6,7.812-18.672,5.326c-6.945-4.238-5.704-20.701,2.841-39.556l2.884,1.23C29.63,54.86,29.832,54.9,30.03,54.9   c0.589,0,1.149-0.346,1.395-0.921c0.328-0.769-0.03-1.66-0.8-1.988l-8.073-3.444c-0.77-0.328-1.66,0.03-1.988,0.8   c-0.328,0.77,0.03,1.66,0.799,1.989l2.4,1.023c-6.646,14.659-8.964,27.542-6.796,35.714c-3.155-4.587-4.908-10.739-5.053-18.022   C11.681,58.397,15.571,45.395,22.868,33.44z M77.132,66.559c-5.621,9.209-12.77,16.965-20.675,22.428   c-7.555,5.222-15.224,7.981-22.177,7.981c-1.013,0-2.001-0.061-2.963-0.18c3.854-0.861,8.219-3.072,12.89-6.591   c8.588-6.468,17.357-16.649,24.691-28.664c11.89-19.481,17.021-38.678,14.14-49.6c3.152,4.586,4.904,10.736,5.048,18.015   C88.319,41.603,84.428,54.604,77.132,66.559z"/><path d="M24.96,45.451l8.073,3.443c0.194,0.082,0.396,0.122,0.594,0.122c0.588,0,1.149-0.346,1.395-0.921   c0.328-0.77-0.03-1.66-0.799-1.989l-8.073-3.443c-0.771-0.327-1.66,0.03-1.989,0.8C23.832,44.232,24.19,45.122,24.96,45.451z"/><path d="M28.557,39.566l8.073,3.443c0.194,0.082,0.395,0.122,0.594,0.122c0.589,0,1.149-0.346,1.395-0.921   c0.328-0.769-0.03-1.66-0.799-1.988l-8.073-3.444c-0.77-0.327-1.66,0.03-1.989,0.8C27.429,38.347,27.787,39.238,28.557,39.566z"/><path d="M32.155,33.681l8.073,3.444c0.194,0.082,0.396,0.121,0.594,0.121c0.589,0,1.149-0.345,1.395-0.921   c0.329-0.77-0.029-1.66-0.8-1.989l-8.073-3.443c-0.77-0.327-1.66,0.03-1.989,0.8C31.027,32.463,31.385,33.353,32.155,33.681z"/></g></svg>
